# ProBuilder 4.0.5
# https://unity3d.com/unity/features/worldbuilding/probuilder
# 2/08/2020 5:30:44 AM

mtllib ./asdasdasd.mtl
o asdasdasd

g Cube
v -30 5 0
v -39 5 0
v -39 6 0
v -30 6 0
v -39 5 -9
v -30 5 -9
v -30 6 -9
v -39 6 -9
v -40 5 0
v -40 6 0
v -45 5 0
v -45 6 0
v -40 6 -10
v -40 5 -10
v -45 6 -10
v -45 5 -10
v -46 5 0
v -46 5 -1
v -46 6 -1
v -46 6 0
v -30 5 -1
v -30 6 -1
v -39 6 -1
v -39 5 -1
v -40 11 -1
v -40 11 0
v -45 11 0
v -45 11 -1
v -39 10 -1
v -39 10 0
v -40 10 0
v -40 10 -1
v -45 5 -1
v -40 5 -1
v -46 5 -4
v -46 5 -9
v -46 6 -9
v -46 6 -4
v -30 6 -4
v -30 5 -4
v -39 6 -4
v -39 5 -4
v -40 6 -4
v -45 6 -4
v -40 10 -9
v -39 10 -9
v -39 10 -4
v -40 10 -4
v -45 5 -4
v -40 5 -4
v -46 5 -2
v -46 6 -2
v -30 6 -2
v -30 5 -2
v -39 6 -2
v -39 5 -2
v -40 6 -2
v -45 6 -2
v -40 6 -1
v -45 6 -1
v -39 10 -2
v -40 10 -2
v -45 5 -2
v -40 5 -2
v -39 9 -9
v -40 9 -9
v -39 9 0
v -39 9 -1
v -45 9 -1
v -45 9 0
v -45 10 -1
v -45 10 0
v -40 9 0
v -40 9 -1
v -39 9 -4
v -40 9 -4
v -39 9 -2
v -40 9 -2
v -45 10 -9
v -45 11 -9
v -40 11 -9
v -45 11 -4
v -45 11 -2
v -46 11 -4
v -46 11 -2
v -46 11 -9
v -46 11 -1
v -46 11 0

vt 0 0
vt -9 0
vt -9 1
vt 0 1
vt 10.98237 0
vt 2.274523 0
vt 2.274523 1
vt 10.98237 1
vt -10 0
vt -10 1
vt -15 0
vt -15 1
vt 12.20263 1
vt 12.20263 0
vt 17.04032 1
vt 17.04032 0
vt -1 0
vt -1 1
vt 1 0
vt 1 1
vt 0 -1
vt 9 0
vt 9 -1
vt -9 -1
vt 10 -1
vt 10 0
vt 15 0
vt 15 -1
vt -15 -1
vt -10 -1
vt -4 0
vt -4 1
vt 4 1
vt 9 1
vt 4 0
vt 9 -9
vt 0 -9
vt 0 -4
vt 9 -4
vt -9 -9
vt -9 -4
vt 15 -10
vt 10 -10
vt 10 -4
vt 15 -4
vt 10 -9
vt -15 -10
vt -15 -4
vt -10 -4
vt -10 -10
vt -2 0
vt -2 1
vt 2 1
vt 2 0
vt 0 -2
vt 9 -2
vt -9 -2
vt 10 -2
vt 15 -2
vt -15 -2
vt -10 -2
vt 10 1
vt 9 4
vt 10 4
vt 9 5
vt 10 5
vt 0 4
vt 1 4
vt 0 5
vt 1 5
vt -1 4
vt -1 5
vt -10 4
vt -9 4
vt -10 5
vt -9 5
vt 15 1
vt 15 4
vt 15 5
vt -15 4
vt -15 5
vt 4 4
vt 4 5
vt -4 4
vt -4 5
vt 2 4
vt 2 5
vt -2 4
vt -2 5
vt 15 6
vt 10 6
vt 1 6
vt 0 6
vt -1 6
vt -10 6
vt -15 6
vt -15 -9
vt -10 -9
vt -9 6
vt 9 6
vt 15 -9
vt -16 -2
vt -16 -4
vt 16 0
vt 16 1
vt -16 1
vt -16 0
vt 16 -4
vt 16 -2
vt -16 -9
vt 3.535534 0
vt 3.535534 1
vt 4.949748 0
vt 4.949748 1
vt 16 -9
vt -16 -1
vt 16 -1
vt -2 6
vt -16 6
vt 2 6
vt 16 6
vt 4 6
vt -4 6
vt 4.949748 6
vt 4.24264 6

vn 0 0 1
vn 0 0 -1
vn 0.7071068 0 -0.7071068
vn -1 0 0
vn 1 0 0
vn 0 1 0
vn 0 -1 0
vn 0.6882472 0.2294157 -0.6882472
vn 0.3441236 0.1147079 -0.8441236
vn -0.7071068 0 -0.7071068
vn -0.3535534 0.09805807 -0.8438437
vn 0 0.1961161 -0.9805807

g Cube_0
usemtl OrangeGrid
f 4/4/1 3/3/1 2/2/1 1/1/1
f 5/5/2 8/8/2 7/7/2 6/6/2
f 3/3/1 10/10/1 9/9/1 2/2/1
f 10/10/1 12/12/1 11/11/1 9/9/1
f 14/14/3 13/13/3 8/8/3 5/5/3
f 16/16/2 15/15/2 13/13/2 14/14/2
f 20/4/4 19/18/4 18/17/4 17/1/4
f 21/19/5 22/20/5 4/4/5 1/1/5
f 3/22/6 4/1/6 22/21/6 23/23/6
f 21/21/7 1/1/7 2/2/7 24/24/7
f 27/27/6 26/26/6 25/25/6 28/28/6
f 31/26/6 30/22/6 29/23/6 32/25/6
f 34/30/7 9/9/7 11/11/7 33/29/7
f 24/24/7 2/2/7 9/9/7 34/30/7
f 38/32/4 37/3/4 36/2/4 35/31/4
f 6/22/5 7/34/5 39/33/5 40/35/5
f 41/39/6 39/38/6 7/37/6 8/36/6
f 6/37/7 40/38/7 42/41/7 5/40/7
f 44/45/6 43/44/6 13/43/6 15/42/6
f 48/44/6 47/39/6 46/36/6 45/46/6
f 14/50/7 50/49/7 49/48/7 16/47/7
f 5/40/7 42/41/7 50/49/7 14/50/7
f 19/18/4 52/52/4 51/51/4 18/17/4
f 52/52/4 38/32/4 35/31/4 51/51/4
f 54/54/5 53/53/5 22/20/5 21/19/5
f 40/35/5 39/33/5 53/53/5 54/54/5
f 55/56/6 53/55/6 39/38/6 41/39/6
f 23/23/6 22/21/6 53/55/6 55/56/6
f 40/38/7 54/55/7 56/57/7 42/41/7
f 54/55/7 21/21/7 24/24/7 56/57/7
f 58/59/6 57/58/6 43/44/6 44/45/6
f 60/28/6 59/25/6 57/58/6 58/59/6
f 62/58/6 61/56/6 47/39/6 48/44/6
f 32/25/6 29/23/6 61/56/6 62/58/6
f 50/49/7 64/61/7 63/60/7 49/48/7
f 64/61/7 34/30/7 33/29/7 63/60/7
f 42/41/7 56/57/7 64/61/7 50/49/7
f 56/57/7 24/24/7 34/30/7 64/61/7
f 13/62/8 66/64/9 65/63/2 8/34/9
f 66/64/2 45/66/2 46/65/2 65/63/2
f 23/20/5 68/68/5 67/67/5 3/4/5
f 68/68/5 29/70/5 30/69/5 67/67/5
f 70/67/4 69/71/4 60/18/4 12/4/4
f 72/69/4 71/72/4 69/71/4 70/67/4
f 67/74/1 73/73/1 10/10/1 3/3/1
f 30/76/1 31/75/1 73/73/1 67/74/1
f 60/77/2 69/78/2 74/64/2 59/62/2
f 73/73/1 70/80/1 12/12/1 10/10/1
f 31/75/1 72/81/1 70/80/1 73/73/1
f 8/34/5 65/63/5 75/82/5 41/33/5
f 65/63/5 46/65/5 47/83/5 75/82/5
f 76/84/4 66/74/4 13/10/4 43/32/4
f 48/85/4 45/76/4 66/74/4 76/84/4
f 55/53/5 77/86/5 68/68/5 23/20/5
f 77/86/5 61/87/5 29/70/5 68/68/5
f 75/82/5 47/83/5 61/87/5 77/86/5
f 74/71/4 78/88/4 57/52/4 59/18/4
f 62/89/4 48/85/4 76/84/4 78/88/4
f 57/62/2 78/64/2 77/63/2 55/34/2
f 78/61/7 76/49/7 75/41/7 77/57/7
f 76/73/1 43/10/1 41/3/1 75/74/1
f 43/44/6 57/58/6 55/56/6 41/39/6
f 80/90/2 81/91/2 45/66/2 79/79/2
f 25/92/5 26/93/5 31/69/5 32/70/5
f 27/93/4 28/94/4 71/72/4 72/69/4
f 26/95/1 27/96/1 72/81/1 31/75/1
f 79/97/7 45/98/7 32/30/7 71/29/7
f 80/99/4 79/76/4 71/72/4 28/94/4
f 45/65/5 81/100/5 25/92/5 32/70/5
f 81/46/6 80/101/6 28/28/6 25/25/6
f 51/102/7 35/103/7 49/48/7 63/60/7
f 35/104/2 38/105/2 44/77/2 49/27/2
f 52/106/1 51/107/1 63/11/1 58/12/1
f 84/108/6 85/109/6 83/59/6 82/45/6
f 35/103/7 36/110/7 16/47/7 49/48/7
f 36/113/10 37/114/10 15/112/10 16/111/10
f 38/106/1 35/107/1 49/11/1 44/12/1
f 86/115/6 84/108/6 82/45/6 80/101/6
f 18/116/7 51/102/7 63/60/7 33/29/7
f 51/104/2 52/105/2 58/77/2 63/27/2
f 20/106/1 17/107/1 11/11/1 12/12/1
f 85/109/6 87/117/6 28/28/6 83/59/6
f 17/107/7 18/116/7 33/29/7 11/11/7
f 87/117/6 88/104/6 27/27/6 28/28/6
f 28/92/5 27/93/5 12/4/5 60/20/5
f 87/94/4 85/118/4 52/52/4 19/18/4
f 27/96/1 88/119/1 20/106/1 12/12/1
f 88/93/4 87/94/4 19/18/4 20/4/4
f 83/120/5 28/92/5 60/20/5 58/53/5
f 85/121/2 83/90/2 58/77/2 52/105/2
f 82/122/5 83/120/5 58/53/5 44/33/5
f 84/121/2 82/90/2 44/77/2 38/105/2
f 83/96/1 85/119/1 52/106/1 58/12/1
f 85/118/4 84/123/4 38/32/4 52/52/4
f 80/100/5 82/122/5 44/33/5 15/62/5
f 86/124/11 80/125/12 15/112/11 37/114/10
f 82/96/1 84/119/1 38/106/1 44/12/1
f 84/123/4 86/99/4 37/3/4 38/32/4

g Cube_1
usemtl Light
f 69/78/2 71/79/2 32/66/2 74/64/2
f 32/72/4 62/89/4 78/88/4 74/71/4

