# ProBuilder 4.0.5
# https://unity3d.com/unity/features/worldbuilding/probuilder
# 5/08/2020 2:37:27 AM

mtllib ./Room.mtl
o Room

g Cube
v 1 7 -35
v 1 8 -35
v 1 8 -8
v 1 7 -8
v 26 7 -8
v 26 8 -8
v 26 8 -35
v 26 7 -35
v 1 0 -8
v 1 0 -35
v 1 2 -35
v 1 2 -8
v 26 0 -8
v 26 2 -8
v 26 2 -35
v 26 0 -35
v 7 8 -8
v 6 8 -8
v 6 8 -35
v 7 8 -35
v 7 0 -35
v 6 0 -35
v 6 0 -8
v 7 0 -8
v 7 7 -8
v 7 7 -35
v 6 7 -35
v 7 2 -8
v 7 2 -35
v 6 2 -35
v 2 8 -35
v 2 8 -8
v 2 0 -8
v 2 0 -35
v 2 7 -8
v 2 7 -35
v 2 2 -8
v 7 2 -34
v 2 2 -34
v 2 7 -34
v 7 7 -34
v 2 2 -35
v 2 2 -21
v 7 2 -21
v 2 7 -21
v 7 7 -21
v 25 2 -21
v 25 2 -34
v 25 7 -34
v 25 7 -21
v 8 2 -34
v 8 2 -21
v 8 7 -34
v 8 7 -21
v 8 2 -9
v 25 2 -9
v 25 7 -9
v 8 7 -9

vt -35 7
vt -35 8
vt -8 8
vt -8 7
vt 8 7
vt 8 8
vt 35 8
vt 35 7
vt -8 0
vt -35 0
vt -35 2
vt -8 2
vt 8 0
vt 8 2
vt 35 2
vt 35 0
vt -7 -8
vt -6 -8
vt -6 -35
vt -7 -35
vt 7 -35
vt 6 -35
vt 6 -8
vt 7 -8
vt 7 7
vt 6 8
vt 7 8
vt -7 7
vt -7 8
vt -6 8
vt -6 7
vt 7 0
vt 6 0
vt 7 2
vt -7 0
vt -7 2
vt -6 2
vt -6 0
vt -1 -35
vt -2 -35
vt -2 -8
vt -1 -8
vt 1 -35
vt 1 -8
vt 2 -8
vt 2 -35
vt 2 7
vt 2 8
vt 1 7
vt 1 8
vt -2 8
vt -2 7
vt -1 8
vt -1 7
vt 2 0
vt 2 2
vt 1 0
vt 1 2
vt -2 2
vt -2 0
vt -1 2
vt -1 0
vt 26 2
vt 26 7
vt 26 0
vt -26 7
vt -26 2
vt -26 0
vt 26 8
vt -26 -8
vt -26 -35
vt -26 8
vt 26 -35
vt 26 -8
vt -2 -21
vt -7 -21
vt -2 -34
vt -7 -34
vt 21 7
vt 21 2
vt 34 7
vt 34 2
vt -21 2
vt -21 7
vt -34 2
vt -34 7
vt 7 -21
vt 2 -21
vt 7 -34
vt 2 -34
vt -8 -34
vt -8 -21
vt -25 -34
vt -25 -21
vt 25 7
vt 25 2
vt -25 2
vt -25 7
vt 8 -21
vt 8 -34
vt 25 -21
vt 25 -34
vt -9 2
vt -9 7
vt 25 -9
vt 8 -9
vt 9 7
vt 9 2
vt -8 -9
vt -25 -9

vn -1 0 0
vn 1 0 0
vn 0 1 0
vn 0 -1 0
vn 0 0 0.5
vn 0 0 0
vn 0 0 1
vn 0 0 -1

g Cube
usemtl OrangeGrid
f 3/3/1 2/2/1 1/1/1 4/4/1
f 8/8/2 7/7/2 6/6/2 5/5/2
f 12/12/1 11/11/1 10/10/1 9/9/1
f 4/4/1 1/1/1 11/11/1 12/12/1
f 16/16/2 15/15/2 14/14/2 13/13/2
f 15/15/2 8/8/2 5/5/2 14/14/2
f 18/18/3 17/17/3 20/20/3 19/19/3
f 21/21/4 24/24/4 23/23/4 22/22/4
f 17/27/7 18/26/5 25/25/6 25/25/5
f 27/31/8 19/30/8 20/29/8 26/28/8
f 28/34/6 28/34/5 23/33/7 24/32/5
f 25/25/6 25/25/6 28/34/6 28/34/6
f 22/38/8 30/37/8 29/36/8 21/35/8
f 30/37/8 27/31/8 26/28/8 29/36/8
f 3/42/3 32/41/3 31/40/3 2/39/3
f 32/41/3 18/18/3 19/19/3 31/40/3
f 34/46/4 33/45/4 9/44/4 10/43/4
f 22/22/4 23/23/4 33/45/4 34/46/4
f 18/26/7 32/48/7 35/47/7 25/25/7
f 32/48/7 3/50/7 4/49/7 35/47/7
f 36/52/8 31/51/8 19/30/8 27/31/8
f 1/54/8 2/53/8 31/51/8 36/52/8
f 28/34/7 37/56/7 33/55/7 23/33/7
f 37/56/7 12/58/7 9/57/7 33/55/7
f 41/25/7 40/47/7 39/56/7 38/34/7
f 35/47/7 4/49/7 12/58/7 37/56/7
f 34/60/8 42/59/8 30/37/8 22/38/8
f 10/62/8 11/61/8 42/59/8 34/60/8
f 42/59/8 36/52/8 27/31/8 30/37/8
f 11/61/8 1/54/8 36/52/8 42/59/8
f 14/63/7 5/64/7 25/25/7 28/34/7
f 13/65/7 14/63/7 28/34/7 24/32/7
f 8/66/8 15/67/8 29/36/8 26/28/8
f 15/67/8 16/68/8 21/35/8 29/36/8
f 5/64/7 6/69/7 17/27/7 25/25/7
f 6/70/3 7/71/3 20/20/3 17/17/3
f 7/72/8 8/66/8 26/28/8 20/29/8
f 16/73/4 13/74/4 24/24/4 21/21/4
f 37/41/3 28/17/3 44/76/3 43/75/3
f 43/75/3 44/76/3 38/78/3 39/77/3
f 43/80/2 45/79/2 35/5/2 37/14/2
f 39/82/2 40/81/2 45/79/2 43/80/2
f 25/4/1 46/84/1 44/83/1 28/12/1
f 50/84/1 49/86/1 48/85/1 47/83/1
f 46/87/4 25/24/4 35/45/4 45/88/4
f 41/89/4 46/87/4 45/88/4 40/90/4
f 44/76/3 52/92/3 51/91/3 38/78/3
f 52/92/3 47/94/3 48/93/3 51/91/3
f 53/5/7 41/25/7 38/34/7 51/14/7
f 49/95/7 53/5/7 51/14/7 48/96/7
f 44/36/8 46/28/8 54/4/8 52/12/8
f 55/12/8 58/4/8 57/98/8 56/97/8
f 53/100/4 54/99/4 46/87/4 41/89/4
f 49/102/4 50/101/4 54/99/4 53/100/4
f 56/103/1 57/104/1 50/84/1 47/83/1
f 57/105/4 58/106/4 54/99/4 50/101/4
f 58/107/2 55/108/2 52/80/2 54/79/2
f 55/109/3 56/110/3 47/94/3 52/92/3

